#!OML:ASF H:\Male1\Project 1\Capture day 1\Session 1\Male1.ASF
:FULLY-SPECIFIED
:DEGREES
261
root 18.6558 14.9711 0.606631 -144.497 80.7277 -139.131
lowerback 16.2571 1.76388 0.143573
upperback 6.64455 2.78817 0.982129
thorax -2.08531 1.55203 0.449952
lowerneck -12.087 1.44497 6.68895
upperneck 17.5614 1.69164 -4.52649
head 7.48117 0.901913 -2.41668
rclavicle -3.63776e-014 -3.57812e-015
rhumerus -38.855 17.7781 -75.734
rradius 66.7649
rwrist -17.9886
rhand -16.6993 9.43199
rfingers 7.12502
rthumb 9.52545 -20.3327
lclavicle -3.63776e-014 -3.57812e-015
lhumerus -44.8829 8.62688 81.0561
lradius 61.216
lwrist 12.4554
lhand -29.966 13.1873
lfingers 7.12502
lthumb -3.28461 43.1417
rfemur -12.4138 4.81608 17.7444
rtibia 32.6773
rfoot -19.3442 -28.3132
rtoes -18.6458
lfemur -14.5151 -12.1531 -13.8096
ltibia 45.1554
lfoot -23.43 13.1623
ltoes -21.2422
262
root 18.7449 15.0274 0.654414 -144.359 81.3086 -139.63
lowerback 16.0758 1.76621 -0.389197
upperback 6.54559 2.68368 0.59902
thorax -2.09725 1.49053 0.371831
lowerneck -12.0598 1.6264 6.6077
upperneck 17.3017 1.87867 -4.18963
head 7.40038 1.01064 -2.27122
rclavicle 3.97569e-014 -7.15625e-015
rhumerus -38.8366 18.286 -76.4859
rradius 67.0248
rwrist -18.1271
rhand -16.6513 9.48761
rfingers 7.12502
rthumb 9.57177 -20.275
lclavicle 3.97569e-014 -7.15625e-015
lhumerus -44.2264 7.28732 81.9724
lradius 63.1194
lwrist 12.8298
lhand -30.0915 12.2381
lfingers 7.12502
lthumb -3.40579 42.1907
rfemur -12.2577 5.8492 17.6433
rtibia 31.8439
rfoot -20.164 -28.8341
rtoes -18.3289
lfemur -13.8851 -12.9654 -14.1109
ltibia 43.7459
lfoot -23.5173 13.9563
ltoes -20.3339
263
root 18.8282 15.0629 0.699989 -143.569 81.9213 -139.473
lowerback 15.8518 1.77871 -0.899065
upperback 6.5024 2.60637 0.302113
thorax -2.03025 1.44402 0.369166
lowerneck -12.0088 1.85013 6.63544
upperneck 16.9441 2.14943 -4.11227
head 7.29073 1.14147 -2.22116
rclavicle -1.82882e-014 2.14687e-014
rhumerus -38.8245 18.795 -77.0794
rradius 67.3469
rwrist -18.3133
rhand -16.6662 9.36415
rfingers 7.12502
rthumb 9.55741 -20.3991
lclavicle -1.82882e-014 2.14687e-014
lhumerus -43.6773 5.8161 82.7136
lradius 64.7047
lwrist 13.0852
lhand -29.9231 12.054
lfingers 7.12502
lthumb -3.24319 42.0091
rfemur -12.2764 6.88266 17.5568
rtibia 31.2208
rfoot -20.8428 -29.3139
rtoes -18.2146
lfemur -13.2637 -13.6672 -14.3765
ltibia 42.4761
lfoot -23.4752 14.9937
ltoes -20.3339
264
root 18.9052 15.0842 0.740236 -141.978 82.5154 -138.598
lowerback 15.5801 1.77553 -1.296
upperback 6.40767 2.52557 0.0484982
thorax -1.98917 1.39538 0.349098
lowerneck -11.8559 2.09431 6.64215
upperneck 16.6258 2.46457 -4.03843
head 7.17825 1.2948 -2.16571
rclavicle -1.88845e-014 1.82882e-014
rhumerus -38.9467 19.2245 -77.6588
rradius 67.6815
rwrist -18.4266
rhand -16.8486 9.27434
rfingers 7.12502
rthumb 9.38147 -20.4969
lclavicle -1.88845e-014 1.82882e-014
lhumerus -43.3286 4.37735 83.2178
lradius 65.9965
lwrist 12.902
lhand -29.5194 12.1777
lfingers 7.12502
lthumb -2.85332 42.1383
rfemur -12.5487 7.63665 17.4703
rtibia 30.7921
rfoot -21.5101 -29.4916
rtoes -17.7055
lfemur -12.8279 -14.2077 -14.5568
ltibia 41.4226
lfoot -23.5849 16.0499
ltoes -20.5291
265
root 18.9774 15.1 0.775595 -139.887 83.0362 -137.168
lowerback 15.4673 1.81087 -1.4583
upperback 6.30893 2.53151 -0.192153
thorax -2.02889 1.39475 0.189779
lowerneck -11.7057 2.243 6.63521
upperneck 16.3481 2.65691 -3.98124
head 7.07231 1.38828 -2.12657
rclavicle -1.70955e-014 -4.77083e-015
rhumerus -39.104 19.2411 -78.1604
rradius 67.9195
rwrist -18.5629
rhand -17.1044 9.4766
rfingers 7.12502
rthumb 9.13459 -20.3056
lclavicle -1.70955e-014 -4.77083e-015
lhumerus -42.8807 2.92163 83.5998
lradius 66.8384
lwrist 12.4668
lhand -29.1942 12.1148
lfingers 7.12502
lthumb -2.53926 42.0795
rfemur -12.8801 7.99269 17.4177
rtibia 30.5222
rfoot -21.8755 -29.4268
rtoes -17.903
lfemur -12.5325 -14.6067 -14.6449
ltibia 40.6209
lfoot -23.8323 16.8619
ltoes -19.9814
266
root 19.049 15.1149 0.810017 -135.57 83.4589 -133.308
lowerback 15.4774 1.87727 -1.42045
upperback 6.39286 2.62421 -0.350504
thorax -1.93796 1.44443 -0.0108023
lowerneck -11.8797 2.37805 6.74779
upperneck 16.1385 2.79804 -4.00734
head 7.04548 1.45292 -2.13795
rclavicle -2.127e-014 -5.56597e-015
rhumerus -38.9565 18.9369 -78.5724
rradius 68.031
rwrist -18.745
rhand -17.3138 9.6064
rfingers 7.12502
rthumb 8.93252 -20.1845
lclavicle -2.127e-014 -5.56597e-015
lhumerus -42.1513 1.69481 83.7924
lradius 67.3104
lwrist 12.0341
lhand -28.8576 11.652
lfingers 7.12502
lthumb -2.21422 41.6202
rfemur -13.13 8.25677 17.6398
rtibia 30.3788
rfoot -21.7486 -29.3483
rtoes -19.3991
lfemur -12.2335 -14.8209 -14.4765
ltibia 40.0746
lfoot -24.1063 17.4225
ltoes -19.1591
267
root 19.1191 15.1226 0.836754 -130.115 83.884 -128.195
lowerback 15.5323 1.88377 -1.43281
upperback 6.56196 2.63852 -0.483081
thorax -1.78263 1.45657 -0.142392
lowerneck -12.0451 2.61686 7.00628
upperneck 15.9428 3.06812 -4.11326
head 7.03306 1.5814 -2.18654
rclavicle 2.94201e-014 1.19271e-014
rhumerus -38.5948 18.7277 -79.0604
rradius 68.0003
rwrist -19.0616
rhand -17.5825 9.61328
rfingers 7.12502
rthumb 8.67328 -20.1885
lclavicle 2.94201e-014 1.19271e-014
lhumerus -41.4655 1.0279 83.7099
lradius 67.5455
lwrist 11.6899
lhand -28.2141 11.1584
lfingers 7.12502
lthumb -1.59265 41.1322
rfemur -13.3449 8.45734 17.8371
rtibia 30.3236
rfoot -21.5144 -29.0726
rtoes -21.0162
lfemur -11.946 -14.9495 -14.3617
ltibia 39.7719
lfoot -24.4617 18.0061
ltoes -18.8243
